<?xml version="1.0" encoding="utf-8"?>
<!-- Generator: Adobe Illustrator 18.1.1, SVG Export Plug-In . SVG Version: 6.00 Build 0)  -->
<svg version="1.1" id="Layer_1" xmlns="http://www.w3.org/2000/svg" xmlns:xlink="http://www.w3.org/1999/xlink" x="0px" y="0px"
	 viewBox="510 89.1 900 901.8" enable-background="new 510 89.1 900 901.8" xml:space="preserve">
<circle fill="none" stroke="#000000" stroke-width="5" stroke-miterlimit="10" cx="961" cy="535.9" r="438.5"/>
<rect x="652" y="234.5" transform="matrix(0.233 0.9725 -0.9725 0.233 1257.5247 -516.7626)" fill="none" stroke="#000000" stroke-width="5" stroke-miterlimit="10" width="608.7" height="608.7"/>
<rect x="683.4" y="270.3" transform="matrix(0.9931 0.117 -0.117 0.9931 69.8166 -107.8811)" fill="none" stroke="#000000" stroke-width="5" stroke-miterlimit="10" width="541.1" height="541.1"/>
<rect x="721.4" y="311.9" transform="matrix(0.7952 -0.6064 0.6064 0.7952 -136.4088 693.3681)" fill="none" stroke="#000000" stroke-width="5" stroke-miterlimit="10" width="473.5" height="473.5"/>
<rect x="756.8" y="339.7" transform="matrix(0.21 -0.9777 0.9777 0.21 227.6502 1367.0568)" fill="none" stroke="#000000" stroke-width="5" stroke-miterlimit="10" width="405.9" height="405.9"/>
<rect x="799.3" y="370.8" transform="matrix(0.8567 -0.5158 0.5158 0.8567 -139.7267 576.9371)" fill="none" stroke="#000000" stroke-width="5" stroke-miterlimit="10" width="338.3" height="338.3"/>
<circle fill="none" stroke="#000000" stroke-width="5" stroke-miterlimit="10" cx="962.7" cy="539" r="137.2"/>
<polygon fill="none" stroke="#000000" stroke-width="5" stroke-miterlimit="10" points="846.8,527.4 997.7,452.4 987.1,620.6 "/>
</svg>
