<?xml version="1.0" encoding="utf-8"?>
<!-- Generator: Adobe Illustrator 18.1.1, SVG Export Plug-In . SVG Version: 6.00 Build 0)  -->
<svg version="1.1" id="Layer_1" xmlns="http://www.w3.org/2000/svg" xmlns:xlink="http://www.w3.org/1999/xlink" x="0px" y="0px"
	 viewBox="510 89.1 900 901.8" enable-background="new 510 89.1 900 901.8" xml:space="preserve">
<circle fill="none" stroke="#000000" stroke-width="5" stroke-miterlimit="10" cx="965.1" cy="536.4" r="438.5"/>
<rect x="653.4" y="230.7" transform="matrix(0.6752 -0.7376 0.7376 0.6752 -83.5739 880.2119)" fill="none" stroke="#000000" stroke-width="5" stroke-miterlimit="10" width="608.7" height="608.7"/>
<rect x="685.8" y="267.5" transform="matrix(-0.4146 -0.91 0.91 -0.4146 863.1867 1631.4008)" fill="none" stroke="#000000" stroke-width="5" stroke-miterlimit="10" width="541.1" height="541.1"/>
<rect x="718.8" y="315.2" transform="matrix(-0.2767 -0.9609 0.9609 -0.2767 689.6494 1622.911)" fill="none" stroke="#000000" stroke-width="5" stroke-miterlimit="10" width="473.5" height="473.5"/>
<rect x="751.8" y="339.2" transform="matrix(-0.2782 0.9605 -0.9605 -0.2782 1741.1139 -224.1434)" fill="none" stroke="#000000" stroke-width="5" stroke-miterlimit="10" width="405.9" height="405.9"/>
<rect x="803.4" y="368.3" transform="matrix(-0.6577 0.7533 -0.7533 -0.6577 2017.0215 158.295)" fill="none" stroke="#000000" stroke-width="5" stroke-miterlimit="10" width="338.3" height="338.3"/>
<circle fill="none" stroke="#000000" stroke-width="5" stroke-miterlimit="10" cx="958.3" cy="541.6" r="137.2"/>
<polygon fill="none" stroke="#000000" stroke-width="5" stroke-miterlimit="10" points="855.3,571.8 928.8,420.1 1023.3,559.6 "/>
</svg>
