<?xml version="1.0" encoding="utf-8"?>
<!-- Generator: Adobe Illustrator 18.1.1, SVG Export Plug-In . SVG Version: 6.00 Build 0)  -->
<svg version="1.1" id="Layer_1" xmlns="http://www.w3.org/2000/svg" xmlns:xlink="http://www.w3.org/1999/xlink" x="0px" y="0px"
	 viewBox="510 89.1 900 901.8" enable-background="new 510 89.1 900 901.8" xml:space="preserve">
<circle fill="none" stroke="#000000" stroke-width="5" stroke-miterlimit="10" cx="958.9" cy="536.9" r="438.5"/>
<rect x="652.7" y="232.2" transform="matrix(0.6398 0.7685 -0.7685 0.6398 756.994 -542.2277)" fill="none" stroke="#000000" stroke-width="5" stroke-miterlimit="10" width="608.7" height="608.7"/>
<rect x="684.4" y="273.5" transform="matrix(-0.9269 -0.3753 0.3753 -0.9269 1635.7987 1406.7502)" fill="none" stroke="#000000" stroke-width="5" stroke-miterlimit="10" width="541.1" height="541.1"/>
<rect x="726.1" y="307.1" transform="matrix(-0.2494 -0.9684 0.9684 -0.2494 676.2868 1611.849)" fill="none" stroke="#000000" stroke-width="5" stroke-miterlimit="10" width="473.5" height="473.5"/>
<rect x="757.4" y="336.2" transform="matrix(-0.8206 0.5715 -0.5715 -0.8206 2056.6028 432.7352)" fill="none" stroke="#000000" stroke-width="5" stroke-miterlimit="10" width="405.9" height="405.9"/>
<rect x="795.5" y="370.4" transform="matrix(-0.8871 0.4615 -0.4615 -0.8871 2069.4666 573.0746)" fill="none" stroke="#000000" stroke-width="5" stroke-miterlimit="10" width="338.3" height="338.3"/>
<circle fill="none" stroke="#000000" stroke-width="5" stroke-miterlimit="10" cx="959.7" cy="541.9" r="137.2"/>
<polygon fill="none" stroke="#000000" stroke-width="5" stroke-miterlimit="10" points="890.3,429.8 1029.2,525.4 876.9,597.8 "/>
</svg>
